<svg width="148" height="36" viewBox="0 0 148 36" fill="none" xmlns="http://www.w3.org/2000/svg">
<path d="M18 0C16.5964 0 15.2303 0.160642 13.9197 0.465194C7.25502 2.00937 2.00937 7.25502 0.465194 13.919C0.160642 15.2303 0 16.5964 0 18C0 27.9411 8.0589 36 18 36C19.4036 36 20.7697 35.8394 22.081 35.5348C28.745 33.9906 33.9906 28.7456 35.5355 22.0823C35.84 20.7711 36.0007 19.4043 36.0007 18C36.0007 8.0589 27.9411 0 18 0ZM18 29.2724C16.6714 29.2724 15.3969 29.0428 14.2135 28.6205C11.0341 27.4866 8.51406 24.9665 7.38019 21.7871C6.95783 20.6037 6.72825 19.3286 6.72825 18C6.72825 11.7744 11.7744 6.72758 18 6.72758C19.3286 6.72758 20.6031 6.95716 21.7865 7.37952C24.9659 8.51339 27.4866 11.0335 28.6205 14.2129C29.0428 15.3963 29.2724 16.6714 29.2724 18C29.2724 24.2256 24.2256 29.2724 18 29.2724Z" fill="url(#paint0_linear_2001_2144)"/>
<path d="M17.9999 10.735C13.9879 10.735 10.7349 13.988 10.7349 18C10.7349 22.0121 13.9879 25.2651 17.9999 25.2651C22.012 25.2651 25.265 22.0121 25.265 18C25.265 13.988 22.0126 10.735 17.9999 10.735ZM17.9999 22.3929C15.5742 22.3929 13.607 20.4264 13.607 18C13.607 15.5736 15.5742 13.6071 17.9999 13.6071C20.4256 13.6071 22.3928 15.5736 22.3928 18C22.3928 20.4264 20.4263 22.3929 17.9999 22.3929Z" fill="#FEFCFE"/>
<path d="M21.7864 7.37953C20.603 6.95718 19.3285 6.72759 17.9999 6.72759C11.7743 6.72759 6.72814 11.7744 6.72814 18C6.72814 19.3287 6.95773 20.6038 7.38008 21.7872C5.94166 21.2437 4.59293 20.3929 3.43497 19.235C1.91556 17.7155 0.925597 15.8675 0.465088 13.919C2.00926 7.25504 7.25491 2.00939 13.9196 0.46521C15.8674 0.925719 17.7154 1.91568 19.2348 3.43509C20.3921 4.59239 21.2429 5.94111 21.7864 7.37953Z" fill="url(#paint1_linear_2001_2144)"/>
<path d="M35.5353 22.0823C33.9905 28.7457 28.7448 33.9906 22.0808 35.5348C20.1331 35.0743 18.285 34.0843 16.7656 32.5649C15.6076 31.407 14.7569 30.0582 14.2134 28.6205C15.3968 29.0428 16.6712 29.2724 17.9999 29.2724C24.2254 29.2724 29.2723 24.2256 29.2723 18C29.2723 16.6714 29.0427 15.3963 28.6203 14.2129C30.0581 14.7564 31.4068 15.6071 32.5648 16.7651C34.0842 18.2845 35.0748 20.1339 35.5353 22.0823Z" fill="url(#paint2_linear_2001_2144)"/>
<path d="M9.09641 30.6713C11.1769 30.6713 12.8635 28.9848 12.8635 26.9043C12.8635 24.8238 11.1769 23.1372 9.09641 23.1372C7.01592 23.1372 5.32935 24.8238 5.32935 26.9043C5.32935 28.9848 7.01592 30.6713 9.09641 30.6713Z" fill="url(#paint3_linear_2001_2144)"/>
<path d="M26.937 12.8306C29.0175 12.8306 30.7041 11.1441 30.7041 9.06358C30.7041 6.98308 29.0175 5.29651 26.937 5.29651C24.8565 5.29651 23.1699 6.98308 23.1699 9.06358C23.1699 11.1441 24.8565 12.8306 26.937 12.8306Z" fill="url(#paint4_linear_2001_2144)"/>
<path d="M49.2457 24V12.825H50.7157V17.805H56.3107V12.825H57.7957V24H56.3107V19.155H50.7157V24H49.2457ZM65.616 24.18C64.826 24.18 64.086 24.04 63.396 23.76C62.706 23.47 62.101 23.065 61.581 22.545C61.071 22.025 60.671 21.415 60.381 20.715C60.091 20.005 59.946 19.235 59.946 18.405C59.946 17.565 60.091 16.795 60.381 16.095C60.671 15.395 61.071 14.785 61.581 14.265C62.101 13.745 62.701 13.345 63.381 13.065C64.071 12.785 64.816 12.645 65.616 12.645C66.416 12.645 67.156 12.79 67.836 13.08C68.526 13.36 69.126 13.76 69.636 14.28C70.156 14.79 70.561 15.395 70.851 16.095C71.151 16.795 71.301 17.565 71.301 18.405C71.301 19.235 71.151 20.005 70.851 20.715C70.561 21.415 70.156 22.025 69.636 22.545C69.126 23.065 68.526 23.47 67.836 23.76C67.156 24.04 66.416 24.18 65.616 24.18ZM65.616 22.815C66.236 22.815 66.801 22.705 67.311 22.485C67.821 22.255 68.261 21.94 68.631 21.54C69.011 21.13 69.301 20.66 69.501 20.13C69.711 19.59 69.816 19.015 69.816 18.405C69.816 17.795 69.711 17.225 69.501 16.695C69.301 16.165 69.011 15.7 68.631 15.3C68.261 14.89 67.821 14.575 67.311 14.355C66.801 14.125 66.236 14.01 65.616 14.01C65.006 14.01 64.446 14.125 63.936 14.355C63.426 14.575 62.981 14.89 62.601 15.3C62.231 15.7 61.941 16.165 61.731 16.695C61.521 17.225 61.416 17.795 61.416 18.405C61.416 19.015 61.521 19.59 61.731 20.13C61.941 20.66 62.231 21.13 62.601 21.54C62.981 21.94 63.426 22.255 63.936 22.485C64.446 22.705 65.006 22.815 65.616 22.815ZM77.495 24.18C76.685 24.18 75.965 24.01 75.335 23.67C74.715 23.33 74.23 22.865 73.88 22.275C73.54 21.675 73.37 20.995 73.37 20.235V12.825H74.855V20.205C74.855 20.715 74.965 21.17 75.185 21.57C75.415 21.96 75.725 22.265 76.115 22.485C76.515 22.705 76.975 22.815 77.495 22.815C78.015 22.815 78.47 22.705 78.86 22.485C79.26 22.265 79.57 21.96 79.79 21.57C80.02 21.17 80.135 20.715 80.135 20.205V12.825H81.62V20.235C81.62 20.995 81.445 21.675 81.095 22.275C80.755 22.865 80.275 23.33 79.655 23.67C79.035 24.01 78.315 24.18 77.495 24.18ZM87.8758 24.18C87.1658 24.18 86.5158 24.05 85.9258 23.79C85.3358 23.52 84.8358 23.155 84.4258 22.695C84.0158 22.235 83.7208 21.72 83.5408 21.15L84.8158 20.625C85.0858 21.345 85.4858 21.9 86.0158 22.29C86.5558 22.67 87.1858 22.86 87.9058 22.86C88.3458 22.86 88.7308 22.79 89.0608 22.65C89.3908 22.51 89.6458 22.315 89.8258 22.065C90.0158 21.805 90.1108 21.505 90.1108 21.165C90.1108 20.695 89.9758 20.325 89.7058 20.055C89.4458 19.775 89.0608 19.565 88.5508 19.425L86.4958 18.795C85.6858 18.545 85.0658 18.15 84.6358 17.61C84.2058 17.07 83.9908 16.45 83.9908 15.75C83.9908 15.14 84.1358 14.605 84.4258 14.145C84.7258 13.675 85.1358 13.31 85.6558 13.05C86.1858 12.78 86.7858 12.645 87.4558 12.645C88.1258 12.645 88.7308 12.765 89.2708 13.005C89.8208 13.245 90.2858 13.57 90.6658 13.98C91.0458 14.38 91.3258 14.84 91.5058 15.36L90.2458 15.885C90.0058 15.255 89.6458 14.78 89.1658 14.46C88.6858 14.13 88.1208 13.965 87.4708 13.965C87.0708 13.965 86.7158 14.035 86.4058 14.175C86.1058 14.305 85.8708 14.5 85.7008 14.76C85.5408 15.01 85.4608 15.31 85.4608 15.66C85.4608 16.07 85.5908 16.435 85.8508 16.755C86.1108 17.075 86.5058 17.32 87.0358 17.49L88.9108 18.045C89.7908 18.315 90.4558 18.7 90.9058 19.2C91.3558 19.7 91.5808 20.32 91.5808 21.06C91.5808 21.67 91.4208 22.21 91.1008 22.68C90.7908 23.15 90.3558 23.52 89.7958 23.79C89.2458 24.05 88.6058 24.18 87.8758 24.18ZM93.733 24V12.825H101.008V14.175H95.203V17.715H100.708V19.065H95.203V22.65H101.008V24H93.733ZM104.342 24L108.347 12.825H110.087L114.092 24H112.517L111.602 21.375H106.832L105.917 24H104.342ZM107.297 20.025H111.137L109.007 13.89H109.427L107.297 20.025ZM115.501 24V12.825H119.446C120.186 12.825 120.836 12.965 121.396 13.245C121.956 13.525 122.391 13.925 122.701 14.445C123.021 14.965 123.181 15.575 123.181 16.275C123.181 16.975 123.021 17.585 122.701 18.105C122.391 18.615 121.956 19.015 121.396 19.305C120.846 19.585 120.196 19.725 119.446 19.725H116.971V24H115.501ZM116.971 18.375H119.491C119.941 18.375 120.331 18.29 120.661 18.12C120.991 17.95 121.246 17.705 121.426 17.385C121.606 17.065 121.696 16.695 121.696 16.275C121.696 15.845 121.606 15.475 121.426 15.165C121.246 14.845 120.991 14.6 120.661 14.43C120.331 14.26 119.941 14.175 119.491 14.175H116.971V18.375ZM125.169 24V12.825H129.114C129.854 12.825 130.504 12.965 131.064 13.245C131.624 13.525 132.059 13.925 132.369 14.445C132.689 14.965 132.849 15.575 132.849 16.275C132.849 16.975 132.689 17.585 132.369 18.105C132.059 18.615 131.624 19.015 131.064 19.305C130.514 19.585 129.864 19.725 129.114 19.725H126.639V24H125.169ZM126.639 18.375H129.159C129.609 18.375 129.999 18.29 130.329 18.12C130.659 17.95 130.914 17.705 131.094 17.385C131.274 17.065 131.364 16.695 131.364 16.275C131.364 15.845 131.274 15.475 131.094 15.165C130.914 14.845 130.659 14.6 130.329 14.43C129.999 14.26 129.609 14.175 129.159 14.175H126.639V18.375Z" fill="white"/>
<defs>
<linearGradient id="paint0_linear_2001_2144" x1="30.5556" y1="6.13588" x2="5.83534" y2="29.4953" gradientUnits="userSpaceOnUse">
<stop stop-color="#F38856"/>
<stop offset="0.23" stop-color="#F0625C"/>
<stop offset="1" stop-color="#5C3DAB"/>
</linearGradient>
<linearGradient id="paint1_linear_2001_2144" x1="16.8607" y1="3.05156" x2="2.79976" y2="17.0368" gradientUnits="userSpaceOnUse">
<stop stop-color="#F67986"/>
<stop offset="1" stop-color="#8951BA"/>
</linearGradient>
<linearGradient id="paint2_linear_2001_2144" x1="32.9423" y1="19.2196" x2="18.8814" y2="33.2055" gradientUnits="userSpaceOnUse">
<stop stop-color="#F67986"/>
<stop offset="1" stop-color="#8951BA"/>
</linearGradient>
<linearGradient id="paint3_linear_2001_2144" x1="11.8467" y1="24.3306" x2="6.34541" y2="29.4779" gradientUnits="userSpaceOnUse">
<stop stop-color="#A267B9"/>
<stop offset="1" stop-color="#704BB4"/>
</linearGradient>
<linearGradient id="paint4_linear_2001_2144" x1="29.2268" y1="6.92034" x2="25.4711" y2="10.4351" gradientUnits="userSpaceOnUse">
<stop stop-color="#F7A8A5"/>
<stop offset="0.97" stop-color="#D074C4"/>
<stop offset="1" stop-color="#CF76A9"/>
</linearGradient>
</defs>
</svg>
